<?xml version="1.0" encoding="UTF-8" standalone="no"?>
<svg
   xmlns:dc="http://purl.org/dc/elements/1.1/"
   xmlns:cc="http://creativecommons.org/ns#"
   xmlns:rdf="http://www.w3.org/1999/02/22-rdf-syntax-ns#"
   xmlns:svg="http://www.w3.org/2000/svg"
   xmlns="http://www.w3.org/2000/svg"
   xmlns:sodipodi="http://sodipodi.sourceforge.net/DTD/sodipodi-0.dtd"
   xmlns:inkscape="http://www.inkscape.org/namespaces/inkscape"
   viewBox="0 0 470.43711 108.88862"
   height="108.88863"
   width="470.4371"
   xml:space="preserve"
   version="1.1"
   id="svg2"
   sodipodi:docname="iqunet_logo_bgwhite.svg"
   inkscape:version="0.92.3 (2405546, 2018-03-11)"><sodipodi:namedview
     pagecolor="#ffffff"
     bordercolor="#666666"
     borderopacity="1"
     objecttolerance="10"
     gridtolerance="10"
     guidetolerance="10"
     inkscape:pageopacity="0"
     inkscape:pageshadow="2"
     inkscape:window-width="1039"
     inkscape:window-height="580"
     id="namedview15"
     showgrid="false"
     inkscape:zoom="0.68872119"
     inkscape:cx="235.21855"
     inkscape:cy="54.444317"
     inkscape:window-x="383"
     inkscape:window-y="291"
     inkscape:window-maximized="0"
     inkscape:current-layer="svg2" /><metadata
     id="metadata8"><rdf:RDF><cc:Work
         rdf:about=""><dc:format>image/svg+xml</dc:format><dc:type
           rdf:resource="http://purl.org/dc/dcmitype/StillImage" /><dc:title></dc:title></cc:Work></rdf:RDF></metadata><defs
     id="defs6" /><path
     inkscape:connector-curvature="0"
     id="path14"
     style="fill:#4d4d4d;fill-opacity:1;fill-rule:nonzero;stroke:none;stroke-width:1.25"
     d="M 1.98535,106.79138 H 13.144525 V 32.63125 H 1.98535 Z" /><path
     inkscape:connector-curvature="0"
     id="path16"
     style="fill:#36abe5;fill-opacity:1;fill-rule:nonzero;stroke:none;stroke-width:1.25"
     d="m 106.93835,80.80075 c 0.84625,-2.26075 0.84625,-5.932625 0.84625,-8.335 V 33.055 c 0,-12.99625 -3.38875,-22.46 -22.45875,-22.46 h -20.2 c -17.93975,0 -23.307875,6.35625 -23.307875,24.155 v 34.46725 c 0,23.449125 5.368125,27.829 23.307875,27.829 h 20.2 c 7.20375,0 15.115,-1.556125 18.64625,-6.641 L 70.9171,68.9355 76.42585,60.741625 Z m 14.54875,21.18938 -7.91,-5.36863 c -6.92125,8.47613 -17.6575,11.01713 -30.65375,11.01713 H 66.3971 c -30.0885,0 -36.586,-12.00588 -36.586,-40.540505 V 37.15125 C 29.8111,11.01875 39.84035,0.8475 66.3971,0 h 16.52625 c 27.1225,0 36.86875,9.60625 36.86875,37.15125 v 29.946875 c 0,8.75875 -0.2825,14.973125 -2.26,20.765625 l 8.89875,5.9325 -4.94375,8.19388" /><path
     inkscape:connector-curvature="0"
     id="path18"
     style="fill:#4d4d4d;fill-opacity:1;fill-rule:nonzero;stroke:none;stroke-width:1.25"
     d="m 187.4271,96.90375 h -0.28125 c -3.955,9.0415 -13.42,10.73488 -23.16625,10.73488 -19.635,0 -26.5575,-7.909755 -26.5575,-27.40338 v -47.604 h 11.16 v 47.604 c 0,12.007375 0.8475,18.36325 15.255,18.36325 15.68,0 23.7325,-2.541 23.7325,-20.200125 V 32.63125 h 11.15875 v 74.16013 H 187.4271 v -9.88763" /><path
     inkscape:connector-curvature="0"
     id="path20"
     style="fill:#4d4d4d;fill-opacity:1;fill-rule:nonzero;stroke:none;stroke-width:1.25"
     d="m 229.51585,41.67125 h 0.28375 c 3.53125,-8.89875 14.4075,-9.8875 22.8825,-9.8875 19.07,0 28.2525,5.085 27.97,25.708875 V 106.79138 H 269.49335 V 56.645 c 0,-13.56 -5.2275,-15.82125 -17.8,-15.82125 -18.2225,0 -22.1775,5.65125 -22.1775,22.743125 V 106.79138 H 218.3571 V 32.63125 h 11.15875 v 9.04" /><path
     inkscape:connector-curvature="0"
     id="path22"
     style="fill:#4d4d4d;fill-opacity:1;fill-rule:nonzero;stroke:none;stroke-width:1.25"
     d="m 352.5246,63.143 c -0.565,-21.048 -3.1075,-22.31925 -20.0575,-22.31925 -20.20125,0 -20.90625,5.2275 -21.755,22.31925 z m 11.58375,21.1885 v 2.6845 c 0,19.63388 -15.115,20.62263 -31.64125,20.62263 -28.9575,0 -33.3375,-9.603505 -33.3375,-37.856005 0,-30.795125 6.78,-37.998875 33.3375,-37.998875 24.01375,0 31.64125,5.50875 31.64125,32.913375 V 72.1835 H 310.7121 c 0,23.44925 1.69625,26.415 21.755,26.415 15.25625,0 20.2,-0.98875 20.2,-11.442375 V 84.3315 h 11.44125" /><path
     inkscape:connector-curvature="0"
     id="path24"
     style="fill:#4d4d4d;fill-opacity:1;fill-rule:nonzero;stroke:none;stroke-width:1.25"
     d="m 420.46335,41.67125 h -28.675 v 47.040125 c 0.14,8.05125 2.25875,9.887125 10.4525,9.887125 10.4525,0 10.4525,-5.50725 10.4525,-12.57075 V 80.5175 h 10.595 v 5.51025 c 0,14.69 -6.075,21.61088 -21.33,21.61088 -17.375,0 -21.33,-4.94338 -21.33,-22.31738 v -43.65 h -9.8875 v -9.04 h 9.8875 v -17.94 h 11.16 v 17.94 h 28.675 v 9.04" /><path
     inkscape:connector-curvature="0"
     id="path26"
     style="fill:#4d4d4d;fill-opacity:1;fill-rule:nonzero;stroke:none;stroke-width:1.25"
     d="m 457.35085,24.63375 c -0.57375,-0.22125 -1.38125,-0.3325 -2.4225,-0.3325 h -1.015 V 28.93 h 1.62125 c 0.97625,0 1.7375,-0.195 2.285,-0.585 0.54625,-0.39125 0.82,-1.0225 0.82,-1.895 0,-0.8725 -0.43,-1.4775 -1.28875,-1.81625 z m -7.6175,12.8125 v -15.9575 c 0.98875,0 2.47125,0.0038 4.44375,0.01 1.9725,0.0075 3.06875,0.01625 3.29125,0.03 1.26125,0.09125 2.31,0.36375 3.14375,0.82 1.41875,0.78125 2.12875,2.05 2.12875,3.80875 0,1.34125 -0.37375,2.30875 -1.1225,2.905 -0.75,0.59625 -1.67,0.9525 -2.76375,1.06875 1.0025,0.21 1.7575,0.5175 2.265,0.9225 0.9375,0.75875 1.40625,1.9525 1.40625,3.58 V 36.06 c 0,0.15625 0.01,0.3125 0.0325,0.46875 0.02,0.15625 0.0587,0.3125 0.115,0.46875 l 0.14625,0.44875 h -3.985 c -0.13,-0.5075 -0.2175,-1.24375 -0.26375,-2.2075 -0.0462,-0.9625 -0.13375,-1.61375 -0.26375,-1.9525 -0.20875,-0.56 -0.59875,-0.95 -1.17125,-1.1725 -0.3125,-0.13 -0.78875,-0.215 -1.42625,-0.25375 l -0.9175,-0.05875 h -0.87875 v 5.645 z m -2.14875,-16.3475 c -2.2925,2.34375 -3.4375,5.12375 -3.4375,8.34 0,3.33375 1.165,6.165 3.49625,8.49625 2.3175,2.33 5.1175,3.495 8.39875,3.495 3.2675,0 6.06125,-1.17125 8.37875,-3.515 2.3175,-2.35625 3.47625,-5.1825 3.47625,-8.47625 0,-3.20375 -1.1525,-5.98375 -3.45625,-8.34 -2.3325,-2.39625 -5.13125,-3.59375 -8.39875,-3.59375 -3.30875,0 -6.12625,1.1975 -8.4575,3.59375 z M 466.1196,39.77 c -2.8,2.70875 -6.15875,4.0625 -10.0775,4.0625 -4.05,0 -7.46125,-1.38625 -10.235,-4.16 -2.7725,-2.77375 -4.16,-6.18375 -4.16,-10.23375 0,-4.20625 1.4975,-7.7025 4.4925,-10.48875 2.8125,-2.60375 6.11375,-3.90625 9.9025,-3.90625 3.97125,0 7.36375,1.40625 10.17625,4.21875 2.8125,2.8125 4.21875,6.205 4.21875,10.17625 0,4.08875 -1.44,7.5325 -4.3175,10.33125" /><path
     inkscape:connector-curvature="0"
     id="path28"
     style="fill:#36abe5;fill-opacity:1;fill-rule:nonzero;stroke:none;stroke-width:1.25"
     d="m 15.129875,15.7725 c 0,4.17875 -3.38675,7.565 -7.5655,7.565 C 3.38675,23.3375 0,19.95125 0,15.7725 0,11.595 3.38675,8.2075 7.564375,8.2075 c 4.17875,0 7.5655,3.3875 7.5655,7.565" /><path
     inkscape:connector-curvature="0"
     id="path30"
     style="fill:#36abe5;fill-opacity:1;fill-rule:nonzero;stroke:none;stroke-width:1.25"
     d="m 451.2696,101.32363 c 0,4.17875 -3.38625,7.565 -7.565,7.565 -4.17875,0 -7.565,-3.38625 -7.565,-7.565 0,-4.177255 3.38625,-7.563505 7.565,-7.563505 4.17875,0 7.565,3.38625 7.565,7.563505" /></svg>